# WaveFront *.obj file (generated by Autodesk ATF)

mtllib f0576c10-3379-469d-a342-7bc0451d4552.mtl

g Body1

v 12.837243 0.000000 0.000000
v 12.837243 0.000000 11.393096
v 10.265208 -15.000000 2.492979
v 0.000000 0.000000 0.000000
v 0.000000 0.000000 11.393096
v 0.000000 10.000000 0.000000
v 0.000000 10.000000 11.393096
v 6.418622 25.000000 5.696548
v 12.837243 10.000000 0.000000
v 12.837243 10.000000 11.393096
vt 1.139310 0.000000 0.000000
vt -0.000000 0.000000 0.000000
vt 0.890012 -1.521891 0.000000
vt 1.283724 0.000000 0.000000
vt -0.000000 0.000000 0.000000
vt 0.257204 -1.520575 0.000000
vt 1.139310 0.000000 0.000000
vt -0.000000 0.000000 0.000000
vt 0.249298 -1.817621 0.000000
vt 1.283724 0.000000 0.000000
vt -0.000000 0.000000 0.000000
vt 1.026521 -1.744168 0.000000
vt -1.139310 0.000000 0.000000
vt -0.000000 0.000000 0.000000
vt -0.569655 1.631560 0.000000
vt -1.283724 0.000000 0.000000
vt -0.000000 0.000000 0.000000
vt -0.641862 1.604527 0.000000
vt -1.139310 0.000000 0.000000
vt -0.000000 0.000000 0.000000
vt -0.569655 1.631560 0.000000
vt -1.283724 0.000000 0.000000
vt -0.000000 0.000000 0.000000
vt -0.641862 1.604527 0.000000
vt 0.000000 0.000000 0.000000
vt 1.139310 0.000000 0.000000
vt 0.000000 1.000000 0.000000
vt 1.139310 1.000000 0.000000
vt -0.000000 0.000000 0.000000
vt 1.283724 0.000000 0.000000
vt -0.000000 1.000000 0.000000
vt 1.283724 1.000000 0.000000
vt -0.000000 0.000000 0.000000
vt 1.139310 0.000000 0.000000
vt -0.000000 1.000000 0.000000
vt 1.139310 1.000000 0.000000
vt 0.000000 0.000000 0.000000
vt 1.283724 0.000000 0.000000
vt 0.000000 1.000000 0.000000
vt 1.283724 1.000000 0.000000
vn 0.098562 -0.016900 0.000000
vn 0.098562 -0.016900 0.000000
vn 0.098562 -0.016900 0.000000
vn 0.000000 -0.016395 -0.098647
vn 0.000000 -0.016395 -0.098647
vn 0.000000 -0.016395 -0.098647
vn -0.082525 -0.056476 0.000000
vn -0.082525 -0.056476 0.000000
vn -0.082525 -0.056476 0.000000
vn 0.000000 -0.051028 0.086001
vn 0.000000 -0.051028 0.086001
vn 0.000000 -0.051028 0.086001
vn -0.091937 0.039340 0.000000
vn -0.091937 0.039340 0.000000
vn -0.091937 0.039340 0.000000
vn 0.000000 0.035503 -0.093485
vn 0.000000 0.035503 -0.093485
vn 0.000000 0.035503 -0.093485
vn 0.091937 0.039340 0.000000
vn 0.091937 0.039340 0.000000
vn 0.091937 0.039340 0.000000
vn 0.000000 0.035503 0.093485
vn 0.000000 0.035503 0.093485
vn 0.000000 0.035503 0.093485
vn -0.100000 0.000000 0.000000
vn -0.100000 0.000000 0.000000
vn -0.100000 0.000000 0.000000
vn -0.100000 0.000000 0.000000
vn 0.000000 0.000000 -0.100000
vn 0.000000 0.000000 -0.100000
vn 0.000000 0.000000 -0.100000
vn 0.000000 0.000000 -0.100000
vn 0.100000 0.000000 0.000000
vn 0.100000 0.000000 0.000000
vn 0.100000 0.000000 0.000000
vn 0.100000 0.000000 0.000000
vn 0.000000 -0.000000 0.100000
vn 0.000000 -0.000000 0.100000
vn 0.000000 -0.000000 0.100000
vn 0.000000 -0.000000 0.100000
usemtl Steel_-_Satin
f 1/1/1 2/2/2 3/3/3
f 4/4/4 1/5/5 3/6/6
f 5/7/7 4/8/8 3/9/9
f 2/10/10 5/11/11 3/12/12
f 6/13/13 7/14/14 8/15/15
f 9/16/16 6/17/17 8/18/18
f 10/19/19 9/20/20 8/21/21
f 7/22/22 10/23/23 8/24/24
f 4/25/25 5/26/26 6/27/27
f 6/27/27 5/26/26 7/28/28
f 1/29/29 4/30/30 9/31/31
f 9/31/31 4/30/30 6/32/32
f 2/33/33 1/34/34 10/35/35
f 10/35/35 1/34/34 9/36/36
f 5/37/37 2/38/38 7/39/39
f 7/39/39 2/38/38 10/40/40
# 10 vertices
# 40 texture params
# 40 normals
# 16 facets

# 1 groups
